<svg width="1440" height="917" viewBox="0 0 1440 917" fill="none" xmlns="http://www.w3.org/2000/svg">
<mask id="mask0_4_285" style="mask-type:alpha" maskUnits="userSpaceOnUse" x="2" y="108" width="1439" height="687">
<path d="M125.484 172.443C24.4837 195.943 -42.5164 280.943 39.403 430.96L281.106 746.854C308.869 783.138 377.751 802.804 434.96 790.78L1375.51 593.091C1440.6 579.409 1460.78 531.49 1417.41 493.551L1013.81 140.439C977.684 108.836 918.5 104.5 859.66 111.566L125.484 172.443Z" fill="#FCC22C"/>
</mask>
<g mask="url(#mask0_4_285)">
<path d="M-60.5164 81.4434H1529.48C1529.48 412.608 1529.48 598.279 1529.48 929.443C1100.51 526.943 577.082 1041.13 -60.5164 769.943V81.4434Z" fill="#090F3F"/>
<mask id="mask1_4_285" style="mask-type:alpha" maskUnits="userSpaceOnUse" x="-103" y="-224" width="1001" height="787">
<path opacity="0.5" d="M-46.7841 331.703C-86.8135 317.416 -109.802 275.423 -100.267 234.006L-9.8866 -158.592C0.494903 -203.686 45.4694 -231.83 90.5678 -221.453L832.015 -50.8515C883.326 -39.0437 911.161 16.6005 889.826 64.7378L691.281 512.767C673.507 552.864 627.812 572.482 586.497 557.733L-46.7841 331.703Z" fill="url(#paint0_linear_4_285)"/>
</mask>
<g mask="url(#mask1_4_285)">
<path opacity="0.7" d="M-47.7841 330.977C-87.8135 316.69 -110.802 274.697 -101.267 233.28L-10.8866 -159.317C-0.505097 -204.412 44.4694 -232.556 89.5678 -222.178L831.015 -51.5774C882.326 -39.7696 910.161 15.8747 888.826 64.012L690.281 512.041C672.507 552.139 626.812 571.757 585.497 557.007L-47.7841 330.977Z" fill="#FCC22C"/>
</g>
<mask id="mask2_4_285" style="mask-type:alpha" maskUnits="userSpaceOnUse" x="-188" y="663" width="904" height="989">
<path d="M708.217 1327.12C725.569 1365.92 711.122 1411.56 674.606 1433.31L328.467 1639.44C288.708 1663.11 237.28 1650.08 213.598 1610.32L-175.753 956.673C-202.696 911.437 -181.737 852.856 -132.208 834.99L328.762 668.687C370.022 653.807 415.788 673.259 433.695 713.307L708.217 1327.12Z" fill="#CF1257"/>
</mask>
<g mask="url(#mask2_4_285)">
<path d="M708.384 1328.35C725.736 1367.15 711.289 1412.79 674.773 1434.53L328.634 1640.66C288.875 1664.34 237.448 1651.3 213.766 1611.54L-175.586 957.897C-202.529 912.662 -181.57 854.08 -132.041 836.214L328.929 669.911C370.189 655.031 415.955 674.483 433.862 714.531L708.384 1328.35Z" fill="url(#paint1_linear_4_285)"/>
</g>
<mask id="mask3_4_285" style="mask-type:alpha" maskUnits="userSpaceOnUse" x="655" y="604" width="923" height="662">
<path d="M1443.61 604.251C1486.12 603.931 1522.12 635.481 1527.38 677.655L1577.25 1077.42C1582.98 1123.34 1550.4 1165.21 1504.48 1170.95L749.518 1265.21C697.272 1271.73 652.028 1229.02 655.544 1176.49L688.241 687.528C691.172 643.766 727.357 609.655 771.225 609.327L1443.61 604.251Z" fill="#CF1257"/>
</mask>
<g mask="url(#mask3_4_285)">
<path d="M1444.8 604.59C1487.3 604.269 1523.31 635.82 1528.57 677.993L1578.44 1077.76C1584.17 1123.68 1551.59 1165.55 1505.67 1171.28L750.707 1265.55C698.461 1272.07 653.217 1229.36 656.733 1176.83L689.429 687.867C692.36 644.104 728.545 609.993 772.413 609.665L1444.8 604.59Z" fill="url(#paint2_linear_4_285)"/>
</g>
<mask id="mask4_4_285" style="mask-type:alpha" maskUnits="userSpaceOnUse" x="967" y="434" width="1005" height="799">
<path d="M1917.71 679.975C1957.41 695.14 1979.47 737.629 1969.03 778.826L1870.02 1169.34C1858.65 1214.19 1813.07 1241.34 1768.21 1229.97L1030.7 1043.09C979.661 1030.15 953.058 973.909 975.448 926.253L1183.81 482.705C1202.46 443.008 1248.58 424.401 1289.56 440.056L1917.71 679.975Z" fill="#CF1257"/>
</mask>
<g mask="url(#mask4_4_285)">
<path d="M1918.69 680.722C1958.4 695.888 1980.46 738.376 1970.01 779.574L1871.01 1170.09C1859.64 1214.94 1814.05 1242.09 1769.19 1230.72L1031.68 1043.83C980.645 1030.9 954.042 974.657 976.432 927.001L1184.79 483.452C1203.45 443.755 1249.56 425.148 1290.54 440.804L1918.69 680.722Z" fill="url(#paint3_linear_4_285)"/>
</g>
<mask id="mask5_4_285" style="mask-type:alpha" maskUnits="userSpaceOnUse" x="885" y="-351" width="777" height="949">
<path opacity="0.5" d="M886.746 -133.139C879.105 -174.949 903.977 -215.854 944.613 -228.305L1329.8 -346.332C1374.05 -359.889 1420.91 -335.012 1434.47 -290.767L1657.45 436.646C1672.88 486.986 1638.61 538.914 1586.25 544.506L1098.97 596.576C1055.36 601.232 1015.52 571.468 1007.64 528.313L886.746 -133.139Z" fill="url(#paint4_linear_4_285)"/>
</mask>
<g mask="url(#mask5_4_285)">
<path opacity="0.7" d="M886.875 -134.368C879.233 -176.178 904.106 -217.083 944.742 -229.534L1329.93 -347.561C1374.17 -361.118 1421.04 -336.241 1434.6 -291.996L1657.58 435.417C1673.01 485.757 1638.73 537.685 1586.38 543.277L1099.1 595.347C1055.49 600.003 1015.65 570.239 1007.77 527.084L886.875 -134.368Z" fill="#FCC22C"/>
</g>
</g>
<defs>
<linearGradient id="paint0_linear_4_285" x1="619.984" y1="490.72" x2="115.984" y2="-290.78" gradientUnits="userSpaceOnUse">
<stop stop-color="#FCC22C"/>
<stop offset="1" stop-color="#FCC22C" stop-opacity="0"/>
</linearGradient>
<linearGradient id="paint1_linear_4_285" x1="492.52" y1="602.957" x2="136.394" y2="1032.52" gradientUnits="userSpaceOnUse">
<stop stop-color="#CF1257"/>
<stop offset="1" stop-color="#CF1257" stop-opacity="0"/>
</linearGradient>
<linearGradient id="paint2_linear_4_285" x1="693.764" y1="511.158" x2="944.269" y2="1009.75" gradientUnits="userSpaceOnUse">
<stop stop-color="#CF1257"/>
<stop offset="1" stop-color="#CF1257" stop-opacity="0"/>
</linearGradient>
<linearGradient id="paint3_linear_4_285" x1="1253.12" y1="320.432" x2="1305.05" y2="875.995" gradientUnits="userSpaceOnUse">
<stop stop-color="#CF1257"/>
<stop offset="1" stop-color="#CF1257" stop-opacity="0"/>
</linearGradient>
<linearGradient id="paint4_linear_4_285" x1="1082.42" y1="523.808" x2="1507.22" y2="-303.419" gradientUnits="userSpaceOnUse">
<stop stop-color="#FCC22C"/>
<stop offset="1" stop-color="#FCC22C" stop-opacity="0"/>
</linearGradient>
</defs>
</svg>
